<svg version="1.1" id="圖層_1" xmlns="http://www.w3.org/2000/svg" xmlns:xlink="http://www.w3.org/1999/xlink" x="0px" y="0px" viewBox="0 0 100 100" style="transform-origin: 50px 50px 0px;" xml:space="preserve"><g style="transform-origin: 50px 50px 0px; transform: scale(0.6);"><g style="transform-origin: 50px 50px 0px;"><style type="text/css" class="ld ld-rubber" style="transform-origin: 50px 50px 0px; animation-duration: 3.7s; animation-delay: -3.7s;">.st0{fill:none}.st1,.st2{fill:#a0c8d7;stroke:#333;stroke-width:3.5;stroke-linecap:round;stroke-miterlimit:10}.st2{fill:#e15b64}.st3{opacity:.2}.st4,.st5{stroke:#000;stroke-width:3.5;stroke-linecap:round;stroke-miterlimit:10}.st5{opacity:.2}.st6{fill:#e0e0e0;stroke:#333}.st6,.st7,.st8{stroke-width:3.5;stroke-miterlimit:10}.st7{opacity:.2;stroke-linejoin:round;stroke:#000}.st8{fill:#666;stroke:#333;stroke-linecap:round}.st9{fill:#333}.st10{fill:#e0e0e0;stroke:#333;stroke-width:3.5;stroke-linecap:round;stroke-miterlimit:10}.st11{fill:#fdfdfd}.st12,.st13,.st14,.st15{fill:#f5e6c8;stroke:#333;stroke-width:3.5;stroke-linecap:round;stroke-miterlimit:10}.st13,.st14,.st15{fill:url(#SVGID_1_)}.st14,.st15{fill:none}.st15{fill:url(#SVGID_2_)}.st16{fill:#666}.st17{fill:#fff;stroke:#333;stroke-width:3.5;stroke-linecap:round;stroke-miterlimit:10}.st18{fill:#e15b64}.st19{fill:#f47e60}.st20{fill:#f8b26a}.st21{fill:#abbd81}.st22{fill:#a0c8d7}.st23{fill:#ac749c}.st24{fill:#f47e60;stroke:#333;stroke-linecap:round;stroke-linejoin:round}.st24,.st25,.st26{stroke-width:3.5;stroke-miterlimit:10}.st25{opacity:.2;stroke-linecap:round;stroke-linejoin:round;stroke:#000}.st26{fill:none;stroke:#fff}.st26,.st27,.st28{stroke-linecap:round;stroke-linejoin:round}.st27{stroke:#333;stroke-width:3.5;stroke-miterlimit:10;fill:#a0c8d7}.st28{fill:#77a4bd}.st28,.st29,.st30,.st31,.st32{stroke:#333;stroke-width:3.5;stroke-miterlimit:10}.st29{stroke-linecap:round;stroke-linejoin:round;fill:#e0e0e0}.st30,.st31,.st32{fill:#fff}.st31,.st32{stroke-linejoin:round}.st32{fill:none;stroke-linecap:round}.st33{fill:#e15b64;stroke:#333}.st33,.st34,.st35,.st36{stroke-width:3.5;stroke-linecap:round;stroke-linejoin:round;stroke-miterlimit:10}.st34{fill:#c33737;stroke:#333}.st35,.st36{stroke:#000}.st36{fill:none;stroke:#fff;stroke-width:5}.st37{fill:#fff}.st38{fill:#333;stroke:#fff}.st38,.st39,.st40{stroke-width:3.5;stroke-miterlimit:10}.st39{opacity:.2;stroke:#000}.st40{fill:#666;stroke:#333}.st41{fill:none;stroke:#333}.st41,.st42,.st43,.st44,.st45,.st46,.st47{stroke-width:3.5;stroke-miterlimit:10}.st42{fill:none;stroke-linecap:round;stroke:#fff}.st43,.st44,.st45,.st46,.st47{stroke:#333;stroke-linejoin:round}.st43{stroke-linecap:round;fill:#849b87}.st44,.st45,.st46,.st47{fill:#e0e0e0}.st45,.st46,.st47{fill:#abbd81;stroke-linecap:round}.st46,.st47{fill:#f5e6c8}.st47{fill:#fff}.st48{fill:#f5e169}.st49{fill:#f5e6c8}.st50{fill:#666;stroke-linecap:round;stroke-linejoin:round}.st50,.st51,.st52,.st53,.st54,.st55,.st56,.st57,.st58{stroke:#333;stroke-width:3.5;stroke-miterlimit:10}.st51{stroke-linecap:round;stroke-linejoin:round;fill:#333}.st52,.st53,.st54,.st55,.st56,.st57,.st58{fill:#e15b64}.st53,.st54,.st55,.st56,.st57,.st58{fill:#f5e169}.st54,.st55,.st56,.st57,.st58{fill:#f47e60;stroke-linecap:round}.st55,.st56,.st57,.st58{fill:#f8b26a}.st56,.st57,.st58{fill:#abbd81}.st57,.st58{fill:url(#SVGID_3_)}.st58{fill:#e15b64;stroke:#fff}.st59,.st60,.st61,.st62,.st63,.st64{fill:#abbd80;stroke:#333;stroke-width:3.5;stroke-miterlimit:10}.st60,.st61,.st62,.st63,.st64{fill:#839a86}.st61,.st62,.st63,.st64{fill:#f3e5c7}.st62,.st63,.st64{fill:#333}.st63,.st64{fill:#e0e0e0;stroke:#fff;stroke-linecap:round}.st64{fill:url(#SVGID_4_);stroke:#333}.st65{fill:url(#SVGID_5_);stroke:#333;stroke-linejoin:round}.st65,.st66,.st67{stroke-width:3.5;stroke-miterlimit:10}.st66{stroke:#333;stroke-linejoin:round;fill:url(#SVGID_6_)}.st67{fill:url(#SVGID_7_)}.st67,.st68,.st69{stroke:#333;stroke-linejoin:round}.st68{stroke-width:3.5;stroke-miterlimit:10;fill:url(#SVGID_8_)}.st69{fill:url(#SVGID_9_)}.st69,.st70,.st71{stroke-width:3.5;stroke-miterlimit:10}.st70{stroke:#333;stroke-linejoin:round;fill:#c33737}.st71{fill:#e15b64}.st71,.st72,.st73{stroke:#333;stroke-linejoin:round}.st72{stroke-width:3.5;stroke-miterlimit:10;fill:#f47e60}.st73{fill:#f8b26a}.st73,.st74,.st75{stroke-width:3.5;stroke-miterlimit:10}.st74{stroke-linejoin:round;fill:#f5e6c8;stroke:#333}.st75{fill:#a0c8d7;stroke:#fff;stroke-linecap:round}.st76{fill:#abbd81;stroke:#333}.st76,.st77,.st78,.st79,.st80{stroke-width:3.5;stroke-miterlimit:10}.st77{fill:#333;stroke-linecap:round;stroke:#333}.st78,.st79,.st80{stroke:#fff}.st78{stroke-linecap:round;fill:#333}.st79,.st80{fill:none}.st80{stroke:#e15b64;stroke-linecap:round}</style><g style="transform-origin: 50px 50px 0px;"><g class="ld ld-rubber" style="transform-origin: 50px 50px 0px; animation-duration: 3.7s; animation-delay: -3.43571s;"><path class="st9" d="M20.9,45V33.6c0-1,1.1-2,2.1-2h4.6c1.7,0,2.8-1.1,2.8-2.6c0-1.6-1.2-2.7-2.8-2.7h-4.3c-5.2,0-8.9,3.2-8.9,7.7 v10.5c0,1.5-0.9,2.4-2.7,2.8L10,47.5v5l1.7,0.3c1.9,0.4,2.7,1.3,2.7,2.8v10.5c0,4.4,3.8,7.7,8.9,7.7h4.3c1.7,0,2.8-1.1,2.8-2.7 c0-1.6-1.1-2.7-2.8-2.7H23c-1.1,0-2.1-1-2.1-2V55c0-1.5-0.6-2.8-1.8-4.1c-0.3-0.3-0.6-0.6-1-0.9c0.4-0.3,0.7-0.6,1-0.9 C20.3,47.8,20.9,46.4,20.9,45z" fill="#3be8b0" style="fill: rgb(59, 232, 176);"></path></g><g class="ld ld-rubber" style="transform-origin: 50px 50px 0px; animation-duration: 3.7s; animation-delay: -3.17143s;"><path class="st9" d="M62.2,44.2c0-1.6-1.8-3.9-3.6-3.9c-0.5,0-1,0.2-1.5,0.6l-4.3,4.4l0.6-6c0.1-0.5-0.1-1.1-0.4-1.5 c-0.7-0.9-2.2-1.2-2.9-1.2c-0.6,0-2.1,0.3-2.8,1.2c-0.4,0.4-0.5,0.9-0.4,1.4l0.5,6.1l-4.4-4.4c-0.4-0.3-0.9-0.5-1.4-0.5 c-1.8,0-3.6,2.2-3.6,3.9c0,1.1,0.5,1.6,0.9,1.8l5.8,4l-5.8,4c-0.6,0.3-0.9,1-0.9,1.8c0,1.7,1.7,3.9,3.6,3.9c0.3,0,1,0,1.5-0.6 l4.3-4.3l-0.5,6c-0.1,0.5,0.1,1,0.4,1.5c0.8,0.9,2.2,1.2,2.8,1.2c0.7,0,2.2-0.3,2.9-1.2c0.4-0.4,0.5-1,0.4-1.4l-0.6-6.1l4.3,4.4 c0.5,0.6,1.2,0.6,1.5,0.6c1.9,0,3.6-2.2,3.6-3.9c0-0.3,0-1.2-0.9-1.8L55.5,50l5.8-4C61.7,45.7,62.2,45.2,62.2,44.2z" fill="#3be8b0" style="fill: rgb(59, 232, 176);"></path></g><g class="ld ld-rubber" style="transform-origin: 50px 50px 0px; animation-duration: 3.7s; animation-delay: -2.90714s;"><path class="st9" d="M88.3,47.2c-1.8-0.4-2.7-1.4-2.7-2.8V33.9c0-4.4-3.8-7.7-8.9-7.7h-4.3c-1.7,0-2.8,1.1-2.8,2.7 c0,1.6,1.1,2.6,2.8,2.6H77c1.1,0,2.1,1,2.1,2V45c0,1.5,0.6,2.8,1.8,4.1c0.3,0.3,0.6,0.6,1,0.9c-0.4,0.3-0.7,0.6-1,0.9 c-1.2,1.3-1.8,2.7-1.8,4.1v11.4c0,1-1.1,2-2.1,2h-4.6c-1.7,0-2.8,1.1-2.8,2.7c0,1.6,1.2,2.7,2.8,2.7h4.3c5.2,0,8.9-3.2,8.9-7.7 V55.6c0-1.5,0.9-2.4,2.7-2.8l1.7-0.3v-5L88.3,47.2z" fill="#3be8b0" style="fill: rgb(59, 232, 176);"></path></g></g><metadata xmlns:d="https://loading.io/stock/" class="ld ld-rubber" style="transform-origin: 50px 50px 0px; animation-duration: 3.7s; animation-delay: -2.64286s;">
<d:name class="ld ld-rubber" style="transform-origin: 50px 50px 0px; animation-duration: 3.7s; animation-delay: -2.37857s;">css</d:name>
<d:tags class="ld ld-rubber" style="transform-origin: 50px 50px 0px; animation-duration: 3.7s; animation-delay: -2.11429s;">css,code,developer,frontend,stylesheet,web design,sass,stylus,less</d:tags>
<d:license class="ld ld-rubber" style="transform-origin: 50px 50px 0px; animation-duration: 3.7s; animation-delay: -1.85s;">cc-by</d:license>
<d:slug class="ld ld-rubber" style="transform-origin: 50px 50px 0px; animation-duration: 3.7s; animation-delay: -1.58571s;">roxc73</d:slug>
</metadata></g></g><style type="text/css" class="ld ld-rubber" style="transform-origin: 50px 50px 0px; animation-duration: 3.7s; animation-delay: -1.32143s;">path,ellipse,circle,rect,polygon,polyline,line { stroke-width: 0; }@keyframes ld-rubber {
  0% {
    -webkit-transform: scale(1, 1);
    transform: scale(1, 1);
  }
  20% {
    -webkit-transform: scale(1.5, 1);
    transform: scale(1.5, 1);
  }
  30% {
    -webkit-transform: scale(0.8, 1);
    transform: scale(0.8, 1);
  }
  40% {
    -webkit-transform: scale(1.3, 1);
    transform: scale(1.3, 1);
  }
  50% {
    -webkit-transform: scale(0.85, 1);
    transform: scale(0.85, 1);
  }
  60% {
    -webkit-transform: scale(1.2, 1);
    transform: scale(1.2, 1);
  }
  70% {
    -webkit-transform: scale(0.9, 1);
    transform: scale(0.9, 1);
  }
  80% {
    -webkit-transform: scale(1.1, 1);
    transform: scale(1.1, 1);
  }
  90% {
    -webkit-transform: scale(0.95, 1);
    transform: scale(0.95, 1);
  }
  100% {
    -webkit-transform: scale(1, 1);
    transform: scale(1, 1);
  }
}
@-webkit-keyframes ld-rubber {
  0% {
    -webkit-transform: scale(1, 1);
    transform: scale(1, 1);
  }
  20% {
    -webkit-transform: scale(1.5, 1);
    transform: scale(1.5, 1);
  }
  30% {
    -webkit-transform: scale(0.8, 1);
    transform: scale(0.8, 1);
  }
  40% {
    -webkit-transform: scale(1.3, 1);
    transform: scale(1.3, 1);
  }
  50% {
    -webkit-transform: scale(0.85, 1);
    transform: scale(0.85, 1);
  }
  60% {
    -webkit-transform: scale(1.2, 1);
    transform: scale(1.2, 1);
  }
  70% {
    -webkit-transform: scale(0.9, 1);
    transform: scale(0.9, 1);
  }
  80% {
    -webkit-transform: scale(1.1, 1);
    transform: scale(1.1, 1);
  }
  90% {
    -webkit-transform: scale(0.95, 1);
    transform: scale(0.95, 1);
  }
  100% {
    -webkit-transform: scale(1, 1);
    transform: scale(1, 1);
  }
}
.ld.ld-rubber {
  -webkit-animation: ld-rubber 1s ease-out infinite;
  animation: ld-rubber 1s ease-out infinite;
}
</style></svg>